<svg width="20" height="20" viewBox="0 0 20 20" fill="none" xmlns="http://www.w3.org/2000/svg">
<path fill-rule="evenodd" clip-rule="evenodd" d="M4.41107 4.41058C4.73651 4.08514 5.26414 4.08514 5.58958 4.41058L10.0003 8.82133L14.4111 4.41058C14.7365 4.08515 15.2641 4.08515 15.5896 4.41058C15.915 4.73602 15.915 5.26366 15.5896 5.58909L11.1788 9.99984L15.5896 14.4106C15.915 14.736 15.915 15.2637 15.5896 15.5891C15.2641 15.9145 14.7365 15.9145 14.4111 15.5891L10.0003 11.1783L5.58958 15.5891C5.26414 15.9145 4.73651 15.9145 4.41107 15.5891C4.08563 15.2637 4.08563 14.736 4.41107 14.4106L8.82181 9.99984L4.41107 5.58909C4.08563 5.26366 4.08563 4.73602 4.41107 4.41058Z" fill="#94A3B8"/>
</svg>
